# xmcd CD database file
#
# Track frame offsets:
#	150
#	11918
#	22058
#	32098
#	44048
#	56998
#	67910
#	80905
#	93520
#	106860
#	121333
#	134053
#	147423
#	157998
#	171023
#	184865
#
# Disc length: 2625 seconds
#
# Revision: 5
# Processed by: cddbd v1.5.1PL2 Copyright (c) Steve Scherf et al.
# Submitted via: CDex 1.51
#
DISCID=eb0a3f10
DTITLE=Various Artist - Blues' Greatest [CD2/4)
DYEAR=1997
DGENRE=Blues
TTITLE0=S. Boy Williamson - Don't Start Me To Talkin'
TTITLE1=Buddy Guy - First Time I Met The Blues
TTITLE2=Chuck Berry - Worried Life Blues
TTITLE3=Little Walter - My Babe
TTITLE4=John Lee Hooker - Confessin' The Blues
TTITLE5=Chuck Berry - Thirty Days
TTITLE6=Howlin' Wolf - Evil
TTITLE7=Bo Diddley - I'm A Man
TTITLE8=Jimmy Witherspoon - It Ain't No Secret
TTITLE9=Otis Rush - So Many Roads
TTITLE10=Jimmy Rogers - That's All Right
TTITLE11=Jimmy Nelson - Free And Easy Mind
TTITLE12=Percy Mayfield - Double Dealing
TTITLE13=Willie Mabon - Seventh Son
TTITLE14=Little Walter - Confessin' The Blues
TTITLE15=Howlin' Wolf - Going Back Home
EXTD=YEAR: 1997
EXTT0=
EXTT1=
EXTT2=
EXTT3=
EXTT4=
EXTT5=
EXTT6=
EXTT7=
EXTT8=
EXTT9=
EXTT10=
EXTT11=
EXTT12=
EXTT13=
EXTT14=
EXTT15=
PLAYORDER=
